HIERARCHY
ROOT root
{
	OFFSET	0	13.1	24.9
	CHANNELS 6  Xposition Yposition Zposition Xrotation Yrotation Zrotation
	JOINT spine_1
	{
		OFFSET	0	9.99999	0
		CHANNELS 3  Xrotation Yrotation Zrotation
		JOINT spine_2
		{
			OFFSET	0	112	-10
			CHANNELS 3  Xrotation Yrotation Zrotation
			JOINT spine_3
			{
				OFFSET	0	206.5	19.3
				CHANNELS 3  Xrotation Yrotation Zrotation
				JOINT spine_4
				{
					OFFSET	0	110.4	14.6
					CHANNELS 3  Xrotation Yrotation Zrotation
					JOINT neck_1
					{
						OFFSET	0	71.8	-50.3
						CHANNELS 3  Xrotation Yrotation Zrotation
						JOINT neck_2
						{
							OFFSET	0	86.2	-25.8
							CHANNELS 3  Xrotation Yrotation Zrotation
							JOINT head_ee
							{
								OFFSET	0	179.8	-8.7
								CHANNELS 3  Xrotation Yrotation Zrotation
								End Site
								{
									OFFSET	1	0	0
								}
							}
						}
					}
					JOINT left_clavicle
					{
						OFFSET	-43.2	22.4	-70.8
						CHANNELS 3  Xrotation Yrotation Zrotation
						JOINT left_shoulder
						{
							OFFSET	-93.9	-5.79999	48.7
							CHANNELS 3  Xrotation Yrotation Zrotation
							JOINT left_elbow
							{
								OFFSET	-291.4	-30.8	15.2
								CHANNELS 3  Xrotation Yrotation Zrotation
								JOINT left_lowarm_twist
								{
									OFFSET	-110.7	-3.89999	13.6
									CHANNELS 3  Xrotation Yrotation Zrotation
									JOINT left_hand
									{
										OFFSET	-110.7	-3.89999	13.6
										CHANNELS 3  Xrotation Yrotation Zrotation
										JOINT left_ee
										{
											OFFSET	-80.8	-5.10001	12.1
											CHANNELS 3  Xrotation Yrotation Zrotation
											End Site
											{
												OFFSET	1	0	0
											}
										}
									}
								}
							}
						}
					}
					JOINT right_clavicle
					{
						OFFSET	43.2	22.4	-70.8
						CHANNELS 3  Xrotation Yrotation Zrotation
						JOINT right_shoulder
						{
							OFFSET	93.9	-5.79999	48.7
							CHANNELS 3  Xrotation Yrotation Zrotation
							JOINT right_elbow
							{
								OFFSET	291.4	-30.8	15.2
								CHANNELS 3  Xrotation Yrotation Zrotation
								JOINT right_lowarm_twist
								{
									OFFSET	110.7	-3.89999	13.6
									CHANNELS 3  Xrotation Yrotation Zrotation
									JOINT right_hand
									{
										OFFSET	110.7	-3.89999	13.6
										CHANNELS 3  Xrotation Yrotation Zrotation
										JOINT right_ee
										{
											OFFSET	80.8	-5.10001	12.1
											CHANNELS 3  Xrotation Yrotation Zrotation
											End Site
											{
												OFFSET	1	0	0
											}
										}
									}
								}
							}
						}
					}
				}
			}
		}
	}
	JOINT left_hip
	{
		OFFSET	-82.8	-127.5	0.300001
		CHANNELS 3  Xrotation Yrotation Zrotation
		JOINT left_knee
		{
			OFFSET	-28.2	-396.7	2.2
			CHANNELS 3  Xrotation Yrotation Zrotation
			JOINT left_ankle
			{
				OFFSET	-11.7	-411.3	35.4
				CHANNELS 3  Xrotation Yrotation Zrotation
				JOINT left_toes
				{
					OFFSET	0	-60	-88.6
					CHANNELS 3  Xrotation Yrotation Zrotation
					JOINT left_foot_ee
					{
						OFFSET	-22.5	-16.5	-42.2
						CHANNELS 3  Xrotation Yrotation Zrotation
						End Site
						{
							OFFSET	1	0	0
						}
					}
				}
			}
		}
	}
	JOINT right_hip
	{
		OFFSET	82.8	-127.5	0.300001
		CHANNELS 3  Xrotation Yrotation Zrotation
		JOINT right_knee
		{
			OFFSET	28.2	-396.7	2.2
			CHANNELS 3  Xrotation Yrotation Zrotation
			JOINT right_ankle
			{
				OFFSET	11.7	-411.3	35.4
				CHANNELS 3  Xrotation Yrotation Zrotation
				JOINT right_toes
				{
					OFFSET	0	-60	-88.6
					CHANNELS 3  Xrotation Yrotation Zrotation
					JOINT right_foot_ee
					{
						OFFSET	22.5	-16.5	-42.2
						CHANNELS 3  Xrotation Yrotation Zrotation
						End Site
						{
							OFFSET	1	0	0
						}
					}
				}
			}
		}
	}
}
MOTION
Frames: 9
Frame Time: 0.02
2609.54 723.429 -1396.91 17.3436 63.3716 -19.1708 -1.89579 0.161102 1.69271 -1.8942 0.0530802 1.69953 -1.8911 -0.360433 1.66173 -1.89494 -0.0935103 1.69779 -12.9896 17.1005 8.0218 -13.3264 27.5928 12.8584 -0.0 0.0 -0.0 4.68758 15.6047 9.30799 0.677057 -15.8571 59.1379 1.45483 -35.7773 0.469601 -49.7031 -4.03703 4.66728 -0.382756 20.6561 6.04237 -0.0 0.0 -0.0 11.4114 22.5545 -22.3851 -14.1357 18.8042 -61.282 0.617948 17.0202 -0.0924651 60.3532 1.80547 7.14041 -0.246826 -29.1174 -10.0352 0.0 0.0 0.0 -4.05608 5.30583 7.1825 -18.5905 0.309749 2.82356 40.5014 14.7506 -4.97361 -23.8797 0.0 0.0 -0.0 0.0 -0.0 3.00555 30.271 6.84996 -56.0534 1.78923 -8.07649 5.26918 -4.99975 0.761544 10.6057 -0.0 -0.0 0.0 0.0 0.0 
2600.07 728.039 -1393.24 14.6036 62.122 -16.1625 -2.14267 0.249809 1.59875 -2.14126 0.147584 1.6114 -2.13554 -0.254163 1.59806 -2.1391 0.00137661 1.61814 -10.5798 17.0555 5.87459 -10.8237 28.3584 10.2109 -0.0 0.0 -0.0 4.66439 15.9952 9.26837 3.29336 -13.7188 59.1279 1.8023 -41.7548 0.687467 -51.2694 -4.22127 4.74764 -1.62578 17.9493 -2.56094 -0.0 0.0 -0.0 11.1219 22.3211 -21.7479 -15.6599 19.05 -60.1523 0.628249 17.2871 -0.0955032 60.3634 1.80638 7.14135 -0.819588 -29.0223 -6.89216 0.0 0.0 0.0 -7.07686 10.0507 7.8691 -10.1886 0.283564 1.53585 36.7828 16.0027 -4.64761 -24.6114 0.0 0.0 -0.0 0.0 -0.0 6.48231 28.5288 4.78857 -46.0167 0.893219 -6.81914 7.17353 0.351177 1.04039 5.68034 -0.0 -0.0 0.0 0.0 0.0 
2589.05 732.921 -1392.03 12.76 61.8244 -13.717 -2.16857 0.107325 1.6373 -2.16708 0.00293607 1.64081 -2.16553 -0.402487 1.5907 -2.16903 -0.14625 1.63428 -11.1786 16.7709 6.20457 -11.445 27.7256 10.5931 -0.0 0.0 -0.0 4.14146 16.1854 8.43291 4.81223 -14.2809 58.7399 2.0422 -45.3264 0.852803 -52.8495 -4.40926 4.82357 -2.27763 18.5427 -6.21598 -0.0 0.0 -0.0 10.4295 22.3436 -20.1814 -16.073 19.462 -60.7897 0.649739 17.8415 -0.101988 60.5373 1.822 7.15727 -1.04764 -28.9322 -5.62514 0.0 0.0 0.0 -9.93263 10.9212 8.53812 -3.71531 0.135041 0.554094 34.9636 16.8423 -4.48061 -25.4005 0.0 0.0 -0.0 0.0 -0.0 8.8608 27.2541 3.35772 -39.0301 0.406216 -5.86203 7.71427 5.5805 1.13678 0.238705 -0.0 -0.0 0.0 0.0 0.0 
2573.84 734.322 -1390.2 13.7726 60.1516 -14.8533 -2.45496 0.289039 1.65514 -2.45346 0.183148 1.67017 -2.44626 -0.243195 1.66249 -2.45012 0.0223778 1.68003 -11.722 16.5299 6.42188 -12.0106 27.2385 10.8624 -0.0 0.0 -0.0 3.83201 16.3125 7.94257 6.19426 -13.9472 58.2163 2.31469 -48.9007 1.05256 -54.8418 -4.64912 4.91187 -2.37341 12.9425 -9.6477 -0.0 0.0 -0.0 10.3397 22.216 -19.9904 -15.9721 19.7966 -60.0568 0.443066 12.3793 -0.0480518 59.9508 1.76955 7.10339 -1.96927 -28.794 -0.610661 0.0 0.0 0.0 -11.7826 14.5343 9.46045 -1.68306 0.0656318 0.249943 30.1022 19.0056 -3.99899 -26.2812 0.0 0.0 -0.0 0.0 -0.0 11.3927 23.5279 2.57901 -33.7261 0.116594 -5.10055 12.3142 2.17484 1.7621 -2.28127 0.0 0.0 0.0 0.0 0.0 
2564.79 734.517 -1386.93 11.3631 58.8142 -12.2281 -2.46147 0.182963 1.60409 -2.46004 0.0805335 1.61248 -2.45616 -0.328289 1.58077 -2.45964 -0.0745499 1.61277 -12.0352 15.82 6.30354 -12.3131 26.0225 10.609 -0.0 0.0 -0.0 4.03695 15.7931 8.26266 7.95319 -11.8235 57.7324 2.52332 -51.3314 1.21268 -56.1213 -4.8047 4.96415 -3.13297 13.6548 -14.1528 -0.0 0.0 -0.0 10.4529 23.3994 -20.1397 -16.3497 20.2297 -59.5387 0.392267 10.9967 -0.03776 59.6108 1.7394 7.07191 -2.74384 -29.0474 3.41365 0.0 0.0 0.0 -13.961 16.7521 10.4141 5.03511 -0.239847 -0.735019 26.6664 20.4102 -3.62745 -27.5561 0.0 0.0 -0.0 0.0 -0.0 12.6526 24.2395 1.37596 -24.7363 -0.209435 -3.76082 16.2835 7.33125 2.33673 -6.48147 0.0 0.0 0.0 0.0 0.0 
2553.67 733.023 -1384.82 10.2076 57.4899 -10.953 -2.25259 0.237609 1.57089 -2.25122 0.137181 1.58283 -2.24588 -0.260223 1.56731 -2.24931 -0.00946255 1.58873 -12.3041 15.747 6.93837 -12.56 25.5336 11.242 -0.0 0.0 -0.0 4.05484 14.997 8.28252 9.80371 -10.7245 56.4148 2.7162 -53.3706 1.36542 -57.0529 -4.91867 5.00001 -3.18761 11.8805 -15.4889 -0.0 0.0 -0.0 10.3991 23.5537 -20.0043 -16.2599 20.357 -59.2023 0.257047 7.2568 -0.0162999 58.6909 1.65878 6.98586 -3.56326 -28.9941 7.8596 0.0 0.0 0.0 -15.5501 19.2289 11.4431 6.81382 -0.339925 -0.989362 24.4559 21.0985 -3.37274 -28.1687 0.0 0.0 -0.0 0.0 -0.0 13.3161 20.9895 0.889048 -16.9548 -0.319463 -2.57278 16.7504 7.14925 2.39662 -8.89265 0.0 0.0 0.0 0.0 0.0 
2532.92 730.437 -1389.3 11.053 56.3175 -11.7023 -2.31277 0.2456 1.53272 -2.31148 0.147583 1.54524 -2.30598 -0.242412 1.53323 -2.30926 0.00274406 1.55226 -9.42124 15.4954 9.86296 -9.29299 22.4208 13.3197 -0.0 0.0 -0.0 4.15171 14.4479 8.43401 9.91766 -9.18771 53.9623 2.85785 -54.7534 1.48012 -59.4104 -5.20952 5.08245 -2.31538 5.87991 -12.8007 -0.0 0.0 -0.0 10.5272 24.318 -20.2194 -17.3997 17.9748 -59.3124 0.209168 5.91577 -0.0108079 59.1885 1.70222 7.03257 -4.01816 -28.784 10.4719 0.0 0.0 0.0 -16.9562 17.9003 11.4568 3.4588 -0.157808 -0.507167 29.3243 20.7577 -3.94102 -26.6705 0.0 0.0 -0.0 0.0 -0.0 15.3541 18.5191 -0.500196 -12.3324 -0.308192 -1.86385 15.9645 7.95363 2.30097 -10.6867 0.0 0.0 0.0 0.0 0.0 
2514.24 727.466 -1384.97 11.0563 55.7676 -12.3204 -2.2811 0.257864 1.53584 -2.2798 0.159624 1.54913 -2.27396 -0.230857 1.54013 -2.27727 0.0152438 1.55725 -8.79751 15.8744 9.50555 -8.66699 23.2141 12.956 -0.0 0.0 -0.0 4.3896 14.0607 8.82149 10.4599 -9.74713 53.4974 3.10845 -56.9874 1.6876 -58.6647 -5.11717 5.05767 -2.46402 5.03862 -14.2212 -0.0 0.0 -0.0 10.4444 24.8607 -19.9789 -18.2149 16.0234 -59.3844 0.201407 5.69775 -0.0100226 57.4258 1.55018 6.86544 -4.89749 -29.041 15.1764 0.0 0.0 0.0 -17.9707 20.3492 13.3091 2.19709 -0.0966909 -0.323251 32.0912 20.3417 -4.24048 -27.468 0.0 0.0 -0.0 0.0 -0.0 15.0001 17.1303 -0.350123 -8.0888 -0.247562 -1.21567 14.6099 8.30389 2.12206 -10.7944 0.0 0.0 0.0 0.0 0.0 
2499.3 726.468 -1387.95 11.7651 55.8778 -12.965 -2.37093 0.212075 1.53628 -2.36962 0.113899 1.54666 -2.36505 -0.276972 1.52592 -2.3683 -0.0325359 1.5505 -10.3189 14.5995 10.4066 -10.1729 20.5957 13.7656 -0.0 0.0 -0.0 4.32726 13.5332 8.7143 11.2688 -9.97989 52.588 3.23836 -58.0489 1.79719 -60.749 -5.37605 5.12389 -2.19746 3.32241 -13.2517 -0.0 0.0 -0.0 10.6132 25.4868 -20.2942 -20.0206 15.2287 -59.3561 0.205182 5.80383 -0.010401 59.0366 1.68892 7.01835 -5.50031 -29.4452 18.2846 0.0 0.0 0.0 -19.6222 20.5513 13.7118 1.58374 -0.0684495 -0.233379 33.1012 19.0647 -4.32517 -27.4364 0.0 0.0 -0.0 0.0 -0.0 16.8949 15.9538 -1.81348 -8.73637 -0.259917 -1.31428 14.4311 9.16919 2.10699 -10.7002 0.0 0.0 0.0 0.0 0.0 
